# This file uses centimeters as units for non-parametric coordinates.

mtllib Diana.mtl
g default
v 2.016865 5.670814 -0.556597
v 1.543632 6.379053 -0.556597
v 0.835415 6.852282 -0.556597
v -0.000033 7.018460 -0.556597
v -0.835432 6.852283 -0.556597
v -1.543665 6.379053 -0.556597
v -2.016898 5.670815 -0.556597
v -2.183069 4.835391 -0.556597
v -2.016898 3.999967 -0.556597
v -1.543665 3.291727 -0.556597
v -0.835432 2.818496 -0.556597
v -0.000033 2.652319 -0.556597
v 0.835415 2.818496 -0.556597
v 1.543632 3.291726 -0.556597
v 2.016865 3.999964 -0.556597
v 2.183062 4.835390 -0.556597
v 2.016865 5.670814 0.534937
v 1.543632 6.379053 0.534937
v 0.835415 6.852282 0.534937
v -0.000033 7.018460 0.534937
v -0.835432 6.852284 0.534937
v -1.543665 6.379053 0.534937
v -2.016898 5.670815 0.534937
v -2.183069 4.835391 0.534937
v -2.016898 3.999967 0.534937
v -1.543665 3.291727 0.534937
v -0.835432 2.818496 0.534937
v -0.000033 2.652319 0.534937
v 0.835415 2.818496 0.534937
v 1.543632 3.291726 0.534937
v 2.016865 3.999964 0.534937
v 2.183062 4.835390 0.534937
v -0.000033 4.835390 -0.556597
v -0.000033 4.835390 0.534937
v -0.835432 -0.018457 -0.556597
v -0.000033 -0.018460 -0.556597
v -0.000033 -0.018460 0.534937
v -0.835432 -0.018457 0.534937
v 0.835415 -0.018457 -0.556597
v 0.835415 -0.018457 0.534937
vt 0.067783 0.941543
vt 0.037729 0.897012
vt 0.165821 0.844485
vt 0.112764 0.971297
vt 0.165821 0.981745
vt 0.218878 0.971297
vt 0.263858 0.941543
vt 0.293913 0.897012
vt 0.304467 0.844485
vt 0.293913 0.791958
vt 0.263858 0.747428
vt 0.218878 0.717673
vt 0.165821 0.707225
vt 0.112764 0.717673
vt 0.067783 0.747427
vt 0.037729 0.791958
vt 0.737961 0.785656
vt 0.737961 0.854451
vt 0.801564 0.985504
vt 0.801564 0.941742
vt 0.877382 0.941742
vt 0.662144 0.854451
vt 0.662144 0.785656
vt 0.737961 0.900418
vt 0.662144 0.900418
vt 0.801564 0.890795
vt 0.801564 0.841442
vt 0.027175 0.844485
vt 0.877382 0.841442
vt 0.877382 0.890795
vt 0.801564 0.786811
vt 0.877382 0.786811
vt 0.801564 0.705661
vt 0.877382 0.705661
vt 0.801564 0.624512
vt 0.877382 0.985504
vt 0.801564 0.893104
vt 0.877382 0.893104
vt 0.877382 0.624512
vt 0.801564 0.555716
vt 0.877382 0.555716
vt 0.801564 0.509749
vt 0.877382 0.509749
vt 0.737961 0.508594
vt 0.218529 0.098918
vt 0.737961 0.554562
vt 0.662144 0.554562
vt 0.662144 0.508594
vt 0.737961 0.623357
vt 0.662144 0.623357
vt 0.248584 0.054388
vt 0.346622 0.151446
vt 0.293564 0.024634
vt 0.346622 0.014186
vt 0.399679 0.024634
vt 0.444659 0.054388
vt 0.474714 0.098918
vt 0.485268 0.151445
vt 0.474714 0.203973
vt 0.444659 0.248503
vt 0.399679 0.278257
vt 0.346622 0.288705
vt 0.293564 0.278257
vt 0.248584 0.248503
vt 0.218529 0.203973
vt 0.207976 0.151446
vt 0.165821 0.424706
vt 0.218878 0.424706
vt 0.218878 0.424706
vt 0.165821 0.424706
vt 0.165821 0.313704
vt 0.218878 0.313704
vt 0.112764 0.424706
vt 0.112764 0.313704
vt 0.399679 0.571224
vt 0.346622 0.571224
vt 0.112764 0.424706
vt 0.293564 0.571224
vt 0.737961 0.704506
vt 0.662144 0.704506
vt 0.801564 0.057142
vt 0.877382 0.057142
vt 0.662144 0.055987
vt 0.737961 0.055987
vn 0.923874 0.382696 0.000000
vn 0.707112 0.707101 0.000000
vn 0.707112 0.707101 0.000000
vn 0.923874 0.382696 0.000000
vn 0.382683 0.923880 0.000000
vn 0.382683 0.923880 0.000000
vn 0.000001 1.000000 -0.000000
vn 0.000001 1.000000 -0.000000
vn -0.382690 0.923877 -0.000000
vn -0.382690 0.923877 -0.000000
vn -0.707107 0.707106 0.000000
vn -0.707107 0.707106 0.000000
vn -0.923880 0.382683 0.000000
vn -0.923880 0.382683 0.000000
vn -1.000000 0.000000 0.000000
vn -1.000000 0.000000 0.000000
vn -0.923880 -0.382682 0.000000
vn -0.923880 -0.382682 0.000000
vn -0.707108 -0.707106 0.000000
vn -0.707108 -0.707106 0.000000
vn -0.555574 -0.831467 0.000000
vn -0.555574 -0.831467 0.000000
vn -0.000004 -1.000000 -0.000000
vn -0.000000 -1.000000 -0.000000
vn 0.000000 -1.000000 -0.000000
vn -0.000004 -1.000000 -0.000000
vn 0.000004 -1.000000 -0.000000
vn 0.000004 -1.000000 -0.000000
vn 0.555582 -0.831462 0.000000
vn 0.707112 -0.707102 0.000000
vn 0.707112 -0.707102 0.000000
vn 0.555582 -0.831462 0.000000
vn 0.923875 -0.382695 0.000000
vn 0.923875 -0.382695 0.000000
vn 1.000000 0.000000 0.000000
vn 1.000000 0.000000 0.000000
vn 0.000000 0.000000 -1.000000
vn 0.000000 0.000000 -1.000000
vn 0.000000 0.000000 -1.000000
vn 0.000000 0.000000 -1.000000
vn 0.000000 0.000000 -1.000000
vn 0.000000 0.000000 -1.000000
vn -0.000000 0.000000 -1.000000
vn 0.000000 0.000000 -1.000000
vn -0.000000 0.000000 -1.000000
vn 0.000000 0.000000 -1.000000
vn 0.000000 0.000000 -1.000000
vn 0.000000 0.000000 -1.000000
vn 0.000000 0.000000 -1.000000
vn 0.000000 0.000000 -1.000000
vn 0.000000 0.000000 -1.000000
vn 0.000000 0.000000 -1.000000
vn 0.000000 0.000000 -1.000000
vn 0.000000 0.000000 1.000000
vn 0.000000 0.000000 1.000000
vn 0.000000 0.000000 1.000000
vn 0.000000 0.000000 1.000000
vn 0.000000 0.000000 1.000000
vn 0.000000 0.000000 1.000000
vn 0.000000 0.000000 1.000000
vn 0.000000 0.000000 1.000000
vn 0.000000 0.000000 1.000000
vn 0.000000 0.000000 1.000000
vn 0.000000 0.000000 1.000000
vn 0.000000 0.000000 1.000000
vn -0.000000 0.000000 1.000000
vn -0.000000 0.000000 1.000000
vn 0.000000 0.000000 1.000000
vn 0.000000 0.000000 1.000000
vn 0.000000 0.000000 1.000000
vn 0.000000 0.000000 -1.000000
vn 0.000000 0.000000 -1.000000
vn 0.000000 0.000000 -1.000000
vn 0.000000 0.000000 -1.000000
vn 0.000000 -0.000000 1.000000
vn 0.000000 -0.000000 1.000000
vn 0.000000 -0.000000 1.000000
vn 0.000000 -0.000000 1.000000
vn -1.000000 -0.000000 0.000000
vn -1.000000 -0.000000 0.000000
vn -1.000000 -0.000000 0.000000
vn -1.000000 -0.000000 0.000000
vn 0.000000 0.000000 -1.000000
vn 0.000000 0.000000 -1.000000
vn 0.000000 0.000000 -1.000000
vn 0.000000 0.000000 -1.000000
vn 1.000000 0.000000 0.000000
vn 1.000000 0.000000 0.000000
vn 1.000000 0.000000 0.000000
vn 1.000000 0.000000 0.000000
vn -0.000000 0.000000 1.000000
vn -0.000000 0.000000 1.000000
vn -0.000000 0.000000 1.000000
vn -0.000000 0.000000 1.000000
s 1
g pCylinder22
usemtl lambert9SG
f 1/17/1 2/18/2 18/22/3 17/23/4
f 2/18/2 3/24/5 19/25/6 18/22/3
f 3/19/5 4/20/7 20/21/8 19/36/6
f 4/20/7 5/37/9 21/38/10 20/21/8
f 5/26/9 6/27/11 22/29/12 21/30/10
f 6/27/11 7/31/13 23/32/14 22/29/12
f 7/31/13 8/33/15 24/34/16 23/32/14
f 8/33/15 9/35/17 25/39/18 24/34/16
f 9/35/17 10/40/19 26/41/20 25/39/18
f 10/40/19 11/42/21 27/43/22 26/41/20
s 2
f 35/69/23 36/70/24 37/71/25 38/72/26
f 36/70/24 39/73/27 40/74/28 37/71/25
s 1
f 13/44/29 14/46/30 30/47/31 29/48/32
f 14/46/30 15/49/33 31/50/34 30/47/31
f 15/49/33 16/79/35 32/80/36 31/50/34
f 16/79/35 1/17/1 17/23/4 32/80/36
s 4
f 2/1/37 1/2/38 33/3/39
f 3/4/40 2/1/37 33/3/39
f 4/5/41 3/4/40 33/3/39
f 5/6/42 4/5/41 33/3/39
f 6/7/43 5/6/42 33/3/39
f 7/8/44 6/7/43 33/3/39
f 8/9/45 7/8/44 33/3/39
f 9/10/46 8/9/45 33/3/39
f 10/11/47 9/10/46 33/3/39
f 11/12/48 10/11/47 33/3/39
f 12/13/49 11/12/48 33/3/39
f 13/14/50 12/13/49 33/3/39
f 14/15/51 13/14/50 33/3/39
f 15/16/52 14/15/51 33/3/39
f 16/28/53 15/16/52 33/3/39
f 1/2/38 16/28/53 33/3/39
s 5
f 17/45/54 18/51/55 34/52/56
f 18/51/55 19/53/57 34/52/56
f 19/53/57 20/54/58 34/52/56
f 20/54/58 21/55/59 34/52/56
f 21/55/59 22/56/60 34/52/56
f 22/56/60 23/57/61 34/52/56
f 23/57/61 24/58/62 34/52/56
f 24/58/62 25/59/63 34/52/56
f 25/59/63 26/60/64 34/52/56
f 26/60/64 27/61/65 34/52/56
f 27/61/65 28/62/66 34/52/56
f 28/62/66 29/63/67 34/52/56
f 29/63/67 30/64/68 34/52/56
f 30/64/68 31/65/69 34/52/56
f 31/65/69 32/66/70 34/52/56
f 32/66/70 17/45/54 34/52/56
s off
f 11/12/71 12/13/72 36/67/73 35/68/74
f 28/62/75 27/61/76 38/75/77 37/76/78
f 27/43/79 11/42/80 35/81/81 38/82/82
f 12/13/83 13/14/84 39/77/85 36/67/86
f 13/44/87 29/48/88 40/83/89 39/84/90
f 29/63/91 28/62/92 37/76/93 40/78/94
