# This file uses centimeters as units for non-parametric coordinates.

mtllib target.mtl
g default
v 0.349765 -0.071161 -0.125151
v 0.350373 0.068106 -0.125151
v 0.297640 0.197003 -0.125151
v 0.199593 0.295909 -0.125151
v 0.071161 0.349765 -0.125151
v -0.068106 0.350373 -0.125151
v -0.197003 0.297640 -0.125151
v -0.295909 0.199593 -0.125151
v -0.349765 0.071160 -0.125151
v -0.350373 -0.068106 -0.125151
v -0.297640 -0.197004 -0.125151
v -0.199593 -0.295909 -0.125151
v -0.071160 -0.349765 -0.125151
v 0.068106 -0.350373 -0.125151
v 0.197004 -0.297640 -0.125151
v 0.295909 -0.199593 -0.125151
v 0.349765 -0.071161 0.125151
v 0.350373 0.068106 0.125151
v 0.297640 0.197003 0.125151
v 0.199593 0.295909 0.125151
v 0.071161 0.349765 0.125151
v -0.068106 0.350373 0.125151
v -0.197003 0.297640 0.125151
v -0.295909 0.199593 0.125151
v -0.349765 0.071160 0.125151
v -0.350373 -0.068106 0.125151
v -0.297640 -0.197004 0.125151
v -0.199593 -0.295909 0.125151
v -0.071160 -0.349765 0.125151
v 0.068106 -0.350373 0.125151
v 0.197004 -0.297640 0.125151
v 0.295909 -0.199593 0.125151
v 0.699531 -0.142321 0.125151
v 0.700746 0.136211 0.125151
v 0.595279 0.394007 0.125151
v 0.399186 0.591818 0.125151
v 0.142321 0.699531 0.125151
v -0.136211 0.700746 0.125151
v -0.394007 0.595279 0.125151
v -0.591818 0.399186 0.125151
v -0.699531 0.142321 0.125151
v -0.700746 -0.136212 0.125151
v -0.595279 -0.394007 0.125151
v -0.399186 -0.591818 0.125151
v -0.142321 -0.699531 0.125151
v 0.136212 -0.700746 0.125151
v 0.394007 -0.595279 0.125151
v 0.591819 -0.399186 0.125151
v 0.699531 -0.142321 -0.125151
v 0.700746 0.136211 -0.125151
v 0.595279 0.394007 -0.125151
v 0.399186 0.591818 -0.125151
v 0.142321 0.699531 -0.125151
v -0.136211 0.700746 -0.125151
v -0.394007 0.595279 -0.125151
v -0.591818 0.399186 -0.125151
v -0.699531 0.142321 -0.125151
v -0.700746 -0.136212 -0.125151
v -0.595279 -0.394007 -0.125151
v -0.399186 -0.591818 -0.125151
v -0.142321 -0.699531 -0.125151
v 0.136212 -0.700746 -0.125151
v 0.394007 -0.595279 -0.125151
v 0.591819 -0.399186 -0.125151
v 1.056458 -0.143879 0.125151
v 1.057674 0.134654 0.125151
v 1.056458 -0.143879 -0.125151
v 1.057674 0.134654 -0.125151
v 0.143878 1.056458 0.125151
v -0.134654 1.057674 0.125151
v 0.143878 1.056458 -0.125151
v -0.134654 1.057674 -0.125151
v -1.056458 0.143878 0.125151
v -1.057674 -0.134654 0.125151
v -1.056458 0.143878 -0.125151
v -1.057674 -0.134654 -0.125151
v -0.143878 -1.056458 0.125151
v 0.134654 -1.057674 0.125151
v -0.143878 -1.056458 -0.125151
v 0.134654 -1.057674 -0.125151
vt 0.150000 0.950000
vt 0.195794 0.950000
vt 0.239252 0.950000
vt 0.282710 0.950000
vt 0.326168 0.950000
vt 0.369626 0.950000
vt 0.413084 0.950000
vt 0.456542 0.950000
vt 0.500000 0.950000
vt 0.543458 0.950000
vt 0.586916 0.950000
vt 0.630374 0.950000
vt 0.673832 0.950000
vt 0.717290 0.950000
vt 0.760748 0.950000
vt 0.804206 0.950000
vt 0.850000 0.950000
vt 0.150000 0.850000
vt 0.195794 0.850000
vt 0.239252 0.850000
vt 0.282710 0.850000
vt 0.326168 0.850000
vt 0.369626 0.850000
vt 0.413084 0.850000
vt 0.456542 0.850000
vt 0.500000 0.850000
vt 0.543458 0.850000
vt 0.586916 0.850000
vt 0.630374 0.850000
vt 0.673832 0.850000
vt 0.717290 0.850000
vt 0.760748 0.850000
vt 0.804206 0.850000
vt 0.850000 0.850000
vt 0.650000 0.350000
vt 0.750000 0.350000
vt 0.750000 0.450000
vt 0.650000 0.450000
vt 0.250000 0.350000
vt 0.250000 0.250000
vt 0.550000 0.350000
vt 0.550000 0.450000
vt 0.450000 0.350000
vt 0.450000 0.450000
vt 0.250000 0.050000
vt 0.350000 0.050000
vt 0.350000 0.250000
vt 0.350000 0.350000
vt 0.350000 0.150000
vt 0.250000 0.150000
vt 0.750000 0.050000
vt 0.850000 0.050000
vt 0.850000 0.150000
vt 0.750000 0.150000
vt 0.650000 0.050000
vt 0.250000 0.250000
vt 0.250000 0.350000
vt 0.650000 0.150000
vt 0.550000 0.050000
vt 0.550000 0.150000
vt 0.650000 0.250000
vt 0.750000 0.250000
vt 0.750000 0.350000
vt 0.150000 0.350000
vt 0.150000 0.250000
vt 0.650000 0.350000
vt 0.550000 0.250000
vt 0.550000 0.350000
vt 0.727723 0.660752
vt 0.727627 0.638765
vt 0.782846 0.627531
vt 0.783038 0.671504
vt 0.719398 0.681102
vt 0.766387 0.712203
vt 0.703919 0.696716
vt 0.735429 0.743433
vt 0.683643 0.705219
vt 0.694877 0.760438
vt 0.661656 0.705315
vt 0.650904 0.760630
vt 0.641307 0.696990
vt 0.610205 0.743979
vt 0.625692 0.681510
vt 0.578976 0.713021
vt 0.617190 0.661234
vt 0.150000 0.350000
vt 0.250000 0.350000
vt 0.250000 0.450000
vt 0.150000 0.450000
vt 0.250000 0.350000
vt 0.350000 0.350000
vt 0.350000 0.450000
vt 0.250000 0.450000
vt 0.350000 0.250000
vt 0.250000 0.250000
vt 0.250000 0.150000
vt 0.350000 0.150000
vt 0.250000 0.250000
vt 0.150000 0.250000
vt 0.150000 0.150000
vt 0.250000 0.150000
vt 0.561970 0.672469
vt 0.617094 0.639248
vt 0.561779 0.628496
vt 0.625419 0.618898
vt 0.578429 0.587796
vt 0.640898 0.603283
vt 0.609387 0.556567
vt 0.661174 0.594781
vt 0.649940 0.539562
vt 0.683160 0.594685
vt 0.693913 0.539370
vt 0.703510 0.603010
vt 0.734612 0.556021
vt 0.719125 0.618489
vt 0.765841 0.586979
vt 0.216963 0.671504
vt 0.217154 0.627531
vt 0.272373 0.638765
vt 0.272277 0.660752
vt 0.233613 0.712203
vt 0.280602 0.681102
vt 0.264571 0.743433
vt 0.296081 0.696716
vt 0.305123 0.760438
vt 0.316358 0.705219
vt 0.349096 0.760630
vt 0.338344 0.705315
vt 0.389796 0.743979
vt 0.358694 0.696990
vt 0.421025 0.713021
vt 0.374308 0.681510
vt 0.438030 0.672469
vt 0.382811 0.661234
vt 0.438222 0.628496
vt 0.382907 0.639248
vt 0.421571 0.587796
vt 0.374582 0.618898
vt 0.390613 0.556567
vt 0.359102 0.603283
vt 0.350061 0.539562
vt 0.338826 0.594781
vt 0.306088 0.539370
vt 0.316840 0.594685
vt 0.265388 0.556021
vt 0.296490 0.603010
vt 0.234159 0.586979
vt 0.280876 0.618489
vt 0.839196 0.627285
vt 0.839387 0.671258
vt 0.160613 0.671258
vt 0.160805 0.627285
vt 0.695123 0.816787
vt 0.651150 0.816979
vt 0.348850 0.816979
vt 0.304877 0.816787
vt 0.505621 0.672715
vt 0.505429 0.628742
vt 0.494571 0.628742
vt 0.494380 0.672715
vt 0.649694 0.483212
vt 0.693667 0.483021
vt 0.306333 0.483021
vt 0.350307 0.483212
vt 0.450000 0.250000
vt 0.450000 0.350000
vt 0.150000 0.050000
vt 0.250000 0.050000
vt 0.250000 0.150000
vt 0.150000 0.150000
vt 0.750000 0.150000
vt 0.850000 0.150000
vt 0.850000 0.250000
vt 0.750000 0.250000
vt 0.650000 0.150000
vt 0.650000 0.250000
vt 0.550000 0.150000
vt 0.550000 0.250000
vt 0.450000 0.250000
vt 0.450000 0.150000
vt 0.850000 0.350000
vt 0.850000 0.450000
vt 0.450000 0.150000
vt 0.450000 0.050000
vt 0.850000 0.250000
vt 0.850000 0.350000
vn -0.981627 -0.190809 0.000000
vn -0.979925 0.199368 0.000000
vn -0.979925 0.199368 0.000000
vn -0.981627 -0.190809 0.000000
vn -0.833886 -0.551937 0.000000
vn -0.833886 -0.551937 0.000000
vn -0.559193 -0.829038 0.000000
vn -0.559193 -0.829038 0.000000
vn -0.199368 -0.979925 0.000000
vn -0.199368 -0.979925 0.000000
vn 0.190809 -0.981627 0.000000
vn 0.190809 -0.981627 0.000000
vn 0.551937 -0.833886 0.000000
vn 0.551937 -0.833886 0.000000
vn 0.829038 -0.559193 0.000000
vn 0.829038 -0.559193 0.000000
vn 0.979925 -0.199368 0.000000
vn 0.979925 -0.199368 0.000000
vn 0.981627 0.190809 0.000000
vn 0.981627 0.190809 0.000000
vn 0.833886 0.551937 0.000000
vn 0.833886 0.551937 0.000000
vn 0.559192 0.829038 0.000000
vn 0.559192 0.829038 0.000000
vn 0.199368 0.979925 0.000000
vn 0.199368 0.979925 0.000000
vn -0.190810 0.981627 0.000000
vn -0.190810 0.981627 0.000000
vn -0.551937 0.833886 0.000000
vn -0.551937 0.833886 0.000000
vn -0.829038 0.559193 0.000000
vn -0.829038 0.559193 0.000000
vn 0.000000 0.000000 1.000000
vn 0.000000 0.000000 1.000000
vn 0.000000 0.000000 1.000000
vn 0.000000 0.000000 1.000000
vn 0.000000 0.000000 1.000000
vn 0.000000 0.000000 1.000000
vn 0.000000 0.000000 1.000000
vn 0.000000 0.000000 1.000000
vn 0.000000 0.000000 1.000000
vn 0.000000 0.000000 1.000000
vn 0.000000 0.000000 1.000000
vn 0.000000 0.000000 1.000000
vn 0.000000 0.000000 1.000000
vn 0.000000 0.000000 1.000000
vn -0.000000 0.000000 1.000000
vn -0.000000 0.000000 1.000000
vn -0.000000 0.000000 1.000000
vn -0.000000 0.000000 1.000000
vn 0.000000 0.000000 1.000000
vn -0.000000 0.000000 1.000000
vn 0.000000 0.000000 1.000000
vn 0.000000 0.000000 1.000000
vn 0.000000 0.000000 1.000000
vn 0.000000 0.000000 1.000000
vn 0.000000 0.000000 1.000000
vn 0.000000 0.000000 1.000000
vn -0.000000 0.000000 1.000000
vn -0.000000 0.000000 1.000000
vn -0.000000 0.000000 1.000000
vn -0.000000 0.000000 1.000000
vn 0.000000 0.000000 1.000000
vn 0.000000 0.000000 1.000000
vn 0.999991 -0.004364 0.000000
vn 0.999991 -0.004364 0.000000
vn 0.999991 -0.004364 0.000000
vn 0.999991 -0.004364 0.000000
vn 0.833886 0.551937 0.000000
vn 0.925541 0.378648 0.000000
vn 0.925541 0.378648 0.000000
vn 0.833886 0.551937 0.000000
vn 0.559193 0.829038 0.000000
vn 0.559193 0.829038 0.000000
vn 0.386711 0.922201 0.000000
vn 0.386711 0.922201 0.000000
vn 0.004363 0.999991 0.000000
vn 0.004363 0.999991 0.000000
vn 0.004363 0.999991 0.000000
vn 0.004363 0.999991 0.000000
vn -0.551937 0.833886 0.000000
vn -0.378649 0.925540 0.000000
vn -0.378649 0.925540 0.000000
vn -0.551937 0.833886 0.000000
vn -0.829038 0.559193 0.000000
vn -0.829038 0.559193 0.000000
vn -0.922201 0.386711 0.000000
vn -0.922201 0.386711 0.000000
vn -0.999991 0.004363 0.000000
vn -0.999991 0.004363 0.000000
vn -0.999991 0.004363 0.000000
vn -0.999991 0.004363 0.000000
vn -0.833886 -0.551937 0.000000
vn -0.925540 -0.378649 0.000000
vn -0.925540 -0.378649 0.000000
vn -0.833886 -0.551937 0.000000
vn -0.559192 -0.829038 0.000000
vn -0.559192 -0.829038 0.000000
vn -0.386711 -0.922201 0.000000
vn -0.386711 -0.922201 0.000000
vn -0.004363 -0.999991 0.000000
vn -0.004363 -0.999991 0.000000
vn -0.004363 -0.999991 0.000000
vn -0.004363 -0.999991 0.000000
vn 0.551937 -0.833886 0.000000
vn 0.378649 -0.925540 0.000000
vn 0.378649 -0.925540 0.000000
vn 0.551937 -0.833886 0.000000
vn 0.829038 -0.559193 0.000000
vn 0.829038 -0.559193 0.000000
vn 0.922201 -0.386711 0.000000
vn 0.922201 -0.386711 0.000000
vn -0.000000 0.000000 -1.000000
vn -0.000000 0.000000 -1.000000
vn 0.000000 0.000000 -1.000000
vn 0.000000 0.000000 -1.000000
vn 0.000000 0.000000 -1.000000
vn 0.000000 0.000000 -1.000000
vn 0.000000 0.000000 -1.000000
vn 0.000000 0.000000 -1.000000
vn 0.000000 0.000000 -1.000000
vn 0.000000 0.000000 -1.000000
vn 0.000000 0.000000 -1.000000
vn 0.000000 0.000000 -1.000000
vn 0.000000 0.000000 -1.000000
vn 0.000000 0.000000 -1.000000
vn -0.000000 0.000000 -1.000000
vn -0.000000 0.000000 -1.000000
vn 0.000000 0.000000 -1.000000
vn -0.000000 0.000000 -1.000000
vn 0.000000 0.000000 -1.000000
vn 0.000000 0.000000 -1.000000
vn 0.000000 0.000000 -1.000000
vn 0.000000 0.000000 -1.000000
vn 0.000000 0.000000 -1.000000
vn 0.000000 0.000000 -1.000000
vn 0.000000 0.000000 -1.000000
vn 0.000000 0.000000 -1.000000
vn -0.000000 0.000000 -1.000000
vn -0.000000 0.000000 -1.000000
vn -0.000000 0.000000 -1.000000
vn -0.000000 0.000000 -1.000000
vn 0.000000 0.000000 -1.000000
vn 0.000000 0.000000 -1.000000
vn 0.000000 0.000000 1.000000
vn 0.000000 0.000000 1.000000
vn -0.004363 -0.999991 0.000000
vn -0.004363 -0.999991 0.000000
vn -0.004363 -0.999991 0.000000
vn -0.004363 -0.999991 0.000000
vn -0.000000 0.000000 -1.000000
vn -0.000000 0.000000 -1.000000
vn 0.004363 0.999991 0.000000
vn 0.004363 0.999991 0.000000
vn 0.004363 0.999991 0.000000
vn 0.004363 0.999991 0.000000
vn 0.000000 0.000000 1.000000
vn 0.000000 0.000000 1.000000
vn 0.999991 -0.004363 0.000000
vn 0.999991 -0.004363 0.000000
vn 0.999991 -0.004363 0.000000
vn 0.999991 -0.004363 0.000000
vn 0.000000 0.000000 -1.000000
vn 0.000000 0.000000 -1.000000
vn -0.999991 0.004363 0.000000
vn -0.999991 0.004363 0.000000
vn -0.999991 0.004363 0.000000
vn -0.999991 0.004363 0.000000
vn -0.000000 0.000000 1.000000
vn -0.000000 0.000000 1.000000
vn 0.004363 0.999991 0.000000
vn 0.004363 0.999991 0.000000
vn 0.004363 0.999991 0.000000
vn 0.004363 0.999991 0.000000
vn 0.000000 0.000000 -1.000000
vn 0.000000 0.000000 -1.000000
vn -0.004363 -0.999991 0.000000
vn -0.004363 -0.999991 0.000000
vn -0.004363 -0.999991 0.000000
vn -0.004363 -0.999991 0.000000
vn 0.000000 0.000000 1.000000
vn 0.000000 0.000000 1.000000
vn -0.999991 0.004363 0.000000
vn -0.999991 0.004363 0.000000
vn -0.999991 0.004363 0.000000
vn -0.999991 0.004363 0.000000
vn 0.000000 0.000000 -1.000000
vn 0.000000 0.000000 -1.000000
vn 0.999991 -0.004363 0.000000
vn 0.999991 -0.004363 0.000000
vn 0.999991 -0.004363 0.000000
vn 0.999991 -0.004363 0.000000
s 1
g pPipe1
usemtl lambert12SG
f 2/2/1 1/1/2 17/18/3 18/19/4
f 3/3/5 2/2/1 18/19/4 19/20/6
f 4/4/7 3/3/5 19/20/6 20/21/8
f 5/5/9 4/4/7 20/21/8 21/22/10
f 6/6/11 5/5/9 21/22/10 22/23/12
f 7/7/13 6/6/11 22/23/12 23/24/14
f 8/8/15 7/7/13 23/24/14 24/25/16
f 9/9/17 8/8/15 24/25/16 25/26/18
f 10/10/19 9/9/17 25/26/18 26/27/20
f 11/11/21 10/10/19 26/27/20 27/28/22
f 12/12/23 11/11/21 27/28/22 28/29/24
f 13/13/25 12/12/23 28/29/24 29/30/26
f 14/14/27 13/13/25 29/30/26 30/31/28
f 15/15/29 14/14/27 30/31/28 31/32/30
f 16/16/31 15/15/29 31/32/30 32/33/32
f 1/17/2 16/16/31 32/33/32 17/34/3
s 2
f 18/69/33 17/70/34 33/71/35 34/72/36
f 19/73/37 18/69/33 34/72/36 35/74/38
f 20/75/39 19/73/37 35/74/38 36/76/40
f 21/77/41 20/75/39 36/76/40 37/78/42
f 22/79/43 21/77/41 37/78/42 38/80/44
f 23/81/45 22/79/43 38/80/44 39/82/46
f 24/83/47 23/81/45 39/82/46 40/84/48
f 25/85/49 24/83/47 40/84/48 41/102/50
f 26/103/51 25/85/49 41/102/50 42/104/52
f 27/105/53 26/103/51 42/104/52 43/106/54
f 28/107/55 27/105/53 43/106/54 44/108/56
f 29/109/57 28/107/55 44/108/56 45/110/58
f 30/111/59 29/109/57 45/110/58 46/112/60
f 31/113/61 30/111/59 46/112/60 47/114/62
f 32/115/63 31/113/61 47/114/62 48/116/64
f 17/70/34 32/115/63 48/116/64 33/71/35
s off
f 66/39/65 65/40/66 67/47/67 68/48/68
s 3
f 35/35/69 34/36/70 50/37/71 51/38/72
f 36/41/73 35/35/69 51/38/72 52/42/74
f 37/43/75 36/41/73 52/42/74 53/44/76
s off
f 70/45/77 69/46/78 71/49/79 72/50/80
s 4
f 39/51/81 38/52/82 54/53/83 55/54/84
f 40/55/85 39/51/81 55/54/84 56/58/86
f 41/59/87 40/55/85 56/58/86 57/60/88
s off
f 74/56/89 73/57/90 75/64/91 76/65/92
s 5
f 43/61/93 42/62/94 58/63/95 59/66/96
f 44/67/97 43/61/93 59/66/96 60/68/98
f 45/165/99 44/67/97 60/68/98 61/166/100
s off
f 78/167/101 77/168/102 79/169/103 80/170/104
s 6
f 47/171/105 46/172/106 62/173/107 63/174/108
f 48/175/109 47/171/105 63/174/108 64/176/110
f 33/177/111 48/175/109 64/176/110 49/178/112
s 7
f 50/117/113 49/118/114 1/119/115 2/120/116
f 51/121/117 50/117/113 2/120/116 3/122/118
f 52/123/119 51/121/117 3/122/118 4/124/120
f 53/125/121 52/123/119 4/124/120 5/126/122
f 54/127/123 53/125/121 5/126/122 6/128/124
f 55/129/125 54/127/123 6/128/124 7/130/126
f 56/131/127 55/129/125 7/130/126 8/132/128
f 57/133/129 56/131/127 8/132/128 9/134/130
f 58/135/131 57/133/129 9/134/130 10/136/132
f 59/137/133 58/135/131 10/136/132 11/138/134
f 60/139/135 59/137/133 11/138/134 12/140/136
f 61/141/137 60/139/135 12/140/136 13/142/138
f 62/143/139 61/141/137 13/142/138 14/144/140
f 63/145/141 62/143/139 14/144/140 15/146/142
f 64/147/143 63/145/141 15/146/142 16/148/144
f 49/118/114 64/147/143 16/148/144 1/119/115
s 2
f 34/72/36 33/71/35 65/149/145 66/150/146
s off
f 33/177/147 49/178/148 67/179/149 65/180/150
s 7
f 49/118/114 50/117/113 68/151/151 67/152/152
s off
f 50/37/153 34/36/154 66/181/155 68/182/156
s 2
f 38/80/44 37/78/42 69/153/157 70/154/158
s off
f 37/86/159 53/87/160 71/88/161 69/89/162
s 7
f 53/125/121 54/127/123 72/155/163 71/156/164
s off
f 54/90/165 38/91/166 70/92/167 72/93/168
s 2
f 42/104/52 41/102/50 73/157/169 74/158/170
s off
f 41/59/171 57/60/172 75/183/173 73/184/174
s 7
f 57/133/129 58/135/131 76/159/175 75/160/176
s off
f 58/63/177 42/62/178 74/185/179 76/186/180
s 2
f 46/112/60 45/110/58 77/161/181 78/162/182
s off
f 45/94/183 61/95/184 79/96/185 77/97/186
s 7
f 61/141/137 62/143/139 80/163/187 79/164/188
s off
f 62/98/189 46/99/190 78/100/191 80/101/192
